<svg width="208" height="208" viewBox="0 0 208 208" fill="none" xmlns="http://www.w3.org/2000/svg">
<g filter="url(#filter0_d)">
<path d="M201.668 113.281L167.684 162.5C161.121 171.289 150.574 176.562 139.558 176.562H39.1676L33.0734 114.922L39.1676 109.414C48.0738 101.563 53.9332 96.1723 65.4176 93.4766C79.1281 90.3129 92.7613 94.1797 101.785 102.383C104.129 104.375 105.535 106.25 108.464 106.25H109.871C137.058 106.25 112.488 106.25 139.558 106.25C146.004 106.25 151.277 111.524 151.277 117.969C151.277 124.414 146.004 129.688 139.558 129.688H115.73C112.448 129.688 109.871 132.266 109.871 135.547C109.871 138.829 112.448 141.407 115.73 141.407H143.426C145.652 141.407 149.871 140 152.098 137.657L183.738 98.2816C187.722 93.9457 194.402 93.2426 199.207 96.7582C204.48 100.625 205.535 108.125 201.668 113.281Z" fill="#FEDBAB"/>
<path d="M109.871 135.547V106.25C137.058 106.25 112.488 106.25 139.558 106.25C146.004 106.25 151.277 111.523 151.277 117.969C151.277 124.414 146.004 129.688 139.558 129.688H115.73C112.448 129.688 109.871 132.265 109.871 135.547Z" fill="#FEC478"/>
<path d="M201.668 113.281L167.684 162.5C161.121 171.289 150.574 176.562 139.558 176.562H109.871V135.547C109.871 138.829 112.448 141.406 115.73 141.406H143.426C145.652 141.406 149.871 140 152.098 137.656L183.738 98.2812C187.722 93.9453 194.402 93.2422 199.207 96.7578C204.48 100.625 205.535 108.125 201.668 113.281Z" fill="#FEC478"/>
<path d="M39.7855 196.761L4.6293 126.449C3.18164 123.554 4.35469 120.034 7.25 118.587L20.2047 112.109C28.8852 107.778 39.4535 111.303 43.791 119.971L68.4645 169.318C72.8102 178.01 69.2938 188.559 60.6023 192.905L47.6477 199.382C44.723 200.834 41.2254 199.633 39.7855 196.761Z" fill="#17ACE8"/>
<path d="M109.871 35.1562C90.5344 35.1562 74.3238 51.3668 74.3238 70.7031V76.9531C74.3238 80.2348 76.9016 82.8125 80.1832 82.8125H139.558C142.84 82.8125 145.418 80.2348 145.418 76.9531V70.7031C145.418 51.3668 129.207 35.1562 109.871 35.1562Z" fill="#1689FC"/>
<path d="M145.418 70.7031V76.9531C145.418 80.2348 142.84 82.8125 139.558 82.8125H109.871V35.1562C129.207 35.1562 145.418 51.3668 145.418 70.7031Z" fill="#136EF1"/>
<path d="M109.871 0C96.9805 0 86.0426 10.5473 86.0426 23.4375C86.0426 36.3277 96.9805 46.875 109.871 46.875C122.761 46.875 133.699 36.3277 133.699 23.4375C133.699 10.5473 122.761 0 109.871 0Z" fill="#17ACE8"/>
<path d="M133.699 23.4375C133.699 36.3277 122.761 46.875 109.871 46.875V0C122.761 0 133.699 10.5473 133.699 23.4375Z" fill="#1689FC"/>
</g>
<defs>
<filter id="filter0_d" x="0" y="0" width="208" height="208" filterUnits="userSpaceOnUse" color-interpolation-filters="sRGB">
<feFlood flood-opacity="0" result="BackgroundImageFix"/>
<feColorMatrix in="SourceAlpha" type="matrix" values="0 0 0 0 0 0 0 0 0 0 0 0 0 0 0 0 0 0 127 0"/>
<feOffset dy="4"/>
<feGaussianBlur stdDeviation="2"/>
<feColorMatrix type="matrix" values="0 0 0 0 0 0 0 0 0 0 0 0 0 0 0 0 0 0 0.25 0"/>
<feBlend mode="normal" in2="BackgroundImageFix" result="effect1_dropShadow"/>
<feBlend mode="normal" in="SourceGraphic" in2="effect1_dropShadow" result="shape"/>
</filter>
</defs>
</svg>
